<svg width="121" height="128" viewBox="0 0 121 128" fill="none" xmlns="http://www.w3.org/2000/svg">
<rect x="0.5" width="120" height="120" rx="60" fill="#CCF5F5"/>
<mask id="mask0_73_2373" style="mask-type:alpha" maskUnits="userSpaceOnUse" x="0" y="0" width="121" height="120">
<rect x="0.5" width="120" height="120" rx="60" fill="#7FE5E5"/>
</mask>
<g mask="url(#mask0_73_2373)">
<path d="M42.7045 46.4418H79.1135V83.1648H42.7045V46.4418Z" fill="#BF360C"/>
<path d="M42.7045 46.4418H79.1135V83.1648H42.7045V46.4418Z" fill="#BF360C"/>
<path d="M42.7045 46.4418H79.1135V83.1648H42.7045V46.4418Z" fill="#4E342E"/>
<path d="M60.9091 91.3254C55.9188 91.3254 49.5312 79.0844 49.5312 79.0844V66.8434H72.2869V79.0844C72.2869 79.0844 65.8971 91.3254 60.9091 91.3254Z" fill="#FF9800"/>
<path d="M81.3893 44.4017C81.3893 28.825 40.4291 34.26 40.4291 44.4017V58.6828C40.4291 68.8245 49.5951 77.0443 60.9092 77.0443C72.221 77.0443 81.3893 68.8245 81.3893 58.6828V44.4017Z" fill="#FFB74D"/>
<path d="M60.9091 24C47.0851 24 26.7756 30.9447 26.7756 71.5073L42.7046 81.1246V54.6025L70.0114 40.3213L79.1137 50.5221V81.1246L95.0427 68.8836C95.0427 60.6719 93.5089 28.0803 70.0114 28.0803L67.7359 24H60.9091Z" fill="#795548"/>
<path d="M60.9091 93.3656C50.8511 93.3656 49.5312 79.0844 49.5312 79.0844C49.5312 79.0844 55.2361 87.2451 60.9091 87.2451C66.5821 87.2451 72.2869 79.0844 72.2869 79.0844C72.2869 79.0844 70.9671 93.3656 60.9091 93.3656Z" fill="#FFB74D"/>
<path d="M67.7358 58.6829C67.7358 59.807 68.7552 60.723 70.0114 60.723C71.2675 60.723 72.2869 59.807 72.2869 58.6829C72.2869 57.5587 71.2675 56.6427 70.0114 56.6427C68.7552 56.6427 67.7358 57.5587 67.7358 58.6829ZM49.5312 58.6829C49.5312 59.807 50.5507 60.723 51.8068 60.723C53.0629 60.723 54.0824 59.807 54.0824 58.6829C54.0824 57.5587 53.0629 56.6427 51.8068 56.6427C50.5507 56.6427 49.5312 57.5587 49.5312 58.6829Z" fill="#784719"/>
<path d="M60.9091 91.3254C55.9188 91.3254 49.5312 79.0844 49.5312 79.0844V66.8434H72.2869V79.0844C72.2869 79.0844 65.8971 91.3254 60.9091 91.3254Z" fill="#FF9800"/>
<path d="M81.3893 44.4017C81.3893 28.825 40.4291 34.26 40.4291 44.4017V58.6828C40.4291 68.8245 49.5951 77.0443 60.9092 77.0443C72.221 77.0443 81.3893 68.8245 81.3893 58.6828V44.4017Z" fill="#FFB74D"/>
<path d="M60.9091 24C47.0851 24 26.7756 30.9447 26.7756 71.5073L42.7046 81.1246V54.6025L70.0114 40.3213L79.1137 50.5221V81.1246L95.0427 68.8836C95.0427 60.6719 93.5089 28.0803 70.0114 28.0803L67.7359 24H60.9091Z" fill="#795548"/>
<path d="M60.9091 93.3656C50.8511 93.3656 49.5312 79.0844 49.5312 79.0844C49.5312 79.0844 55.2361 87.2451 60.9091 87.2451C66.5821 87.2451 72.2869 79.0844 72.2869 79.0844C72.2869 79.0844 70.9671 93.3656 60.9091 93.3656Z" fill="#FFB74D"/>
<path d="M67.7358 58.6829C67.7358 59.807 68.7552 60.723 70.0114 60.723C71.2675 60.723 72.2869 59.807 72.2869 58.6829C72.2869 57.5587 71.2675 56.6427 70.0114 56.6427C68.7552 56.6427 67.7358 57.5587 67.7358 58.6829ZM49.5312 58.6829C49.5312 59.807 50.5507 60.723 51.8068 60.723C53.0629 60.723 54.0824 59.807 54.0824 58.6829C54.0824 57.5587 53.0629 56.6427 51.8068 56.6427C50.5507 56.6427 49.5312 57.5587 49.5312 58.6829Z" fill="#784719"/>
<path d="M72.0164 83C72.0164 83 69.6823 95.6154 60.3458 95.6154C51.0094 95.6154 48.6752 83 48.6752 83C48.6752 83 23 89.2635 23 124H83.6869C83.6869 124 97.4419 117.431 96.9891 114.538C92.8647 88.1881 72.0164 83 72.0164 83Z" fill="#00AAAA"/>
<path d="M60.9091 91.3254C55.9188 91.3254 49.5312 79.0844 49.5312 79.0844V66.8434H72.2869V79.0844C72.2869 79.0844 65.8971 91.3254 60.9091 91.3254Z" fill="#FF9800"/>
<path d="M81.3893 44.4017C81.3893 28.825 40.4291 34.26 40.4291 44.4017V58.6828C40.4291 68.8245 49.5951 77.0443 60.9092 77.0443C72.221 77.0443 81.3893 68.8245 81.3893 58.6828V44.4017Z" fill="#FFB74D"/>
<path d="M60.9091 24C47.0851 24 26.7756 30.9447 26.7756 71.5073L42.7046 81.1246V54.6025L70.0114 40.3213L79.1137 50.5221V81.1246L95.0427 68.8836C95.0427 60.6719 93.5089 28.0803 70.0114 28.0803L67.7359 24H60.9091Z" fill="#795548"/>
<path d="M60.9091 93.3656C50.8511 93.3656 49.5312 79.0844 49.5312 79.0844C49.5312 79.0844 55.2361 87.2451 60.9091 87.2451C66.5821 87.2451 72.2869 79.0844 72.2869 79.0844C72.2869 79.0844 70.9671 93.3656 60.9091 93.3656Z" fill="#FFB74D"/>
<path d="M60.9091 97.4459C71.7089 97.4459 75.8618 87.0105 76.722 80.2514C74.0914 79.3864 72.2869 79.0844 72.2869 79.0844C72.2869 79.0844 70.9671 93.3656 60.9091 93.3656C50.8511 93.3656 49.5312 79.0844 49.5312 79.0844C49.5312 79.0844 47.7244 79.3802 45.0939 80.2391C45.9518 86.9962 50.1024 97.4459 60.9091 97.4459Z" fill="#006666"/>
<path d="M67.7358 58.6829C67.7358 57.5587 68.7552 56.6427 70.0114 56.6427C71.2675 56.6427 72.2869 57.5587 72.2869 58.6829C72.2869 59.807 71.2675 60.723 70.0114 60.723C68.7552 60.723 67.7358 59.807 67.7358 58.6829ZM49.5312 58.6829C49.5312 59.807 50.5507 60.723 51.8068 60.723C53.0629 60.723 54.0824 59.807 54.0824 58.6829C54.0824 57.5587 53.0629 56.6427 51.8068 56.6427C50.5507 56.6427 49.5312 57.5587 49.5312 58.6829Z" fill="#784719"/>
</g>
<path d="M114.164 124.444L101.023 111.303C103.621 108.01 105.185 103.862 105.185 99.3423C105.185 88.6631 96.5216 80 85.8423 80C75.1631 80 66.5 88.6631 66.5 99.3423C66.5 110.024 75.1631 118.685 85.8423 118.685C90.3616 118.685 94.51 117.121 97.8027 114.523L110.946 127.662L114.164 124.444Z" fill="#616161"/>
<path d="M101.522 118.239L104.74 115.021L114.163 124.444L110.945 127.662L101.522 118.239Z" fill="#37474F"/>
<path d="M100.634 99.3425C100.634 107.512 94.0093 114.134 85.8423 114.134C77.6753 114.134 71.0511 107.512 71.0511 99.3425C71.0511 91.1754 77.6753 84.5513 85.8423 84.5513C94.0093 84.5513 100.634 91.1754 100.634 99.3425Z" fill="#BBDEFB"/>
</svg>
