<svg width="121" height="128" viewBox="0 0 121 128" fill="none" xmlns="http://www.w3.org/2000/svg">
<rect x="0.5" y="0.661926" width="120" height="120" rx="60" fill="#FEEBE1"/>
<mask id="mask0_73_2411" style="mask-type:alpha" maskUnits="userSpaceOnUse" x="0" y="0" width="121" height="121">
<rect x="0.5" y="0.661926" width="120" height="120" rx="60" fill="#FEEBE1"/>
</mask>
<g mask="url(#mask0_73_2411)">
<path d="M67.9999 30.6619H52.9999C48.7499 30.6619 45.4999 33.9119 45.4999 38.1619V45.6619H50.4999V38.1619C50.4999 36.6619 51.4999 35.6619 52.9999 35.6619H67.9999C69.4999 35.6619 70.4999 36.6619 70.4999 38.1619V45.6619H75.4999V38.1619C75.4999 33.9119 72.2499 30.6619 67.9999 30.6619Z" fill="#424242"/>
<path d="M110.5 50.662V110.662C110.5 116.162 106 120.662 100.5 120.662H20.5C15 120.662 10.5 116.162 10.5 110.662V50.662C10.5 45.162 15 40.662 20.5 40.662H100.5C106 40.662 110.5 45.162 110.5 50.662Z" fill="#6D4C41"/>
<path d="M100.5 83.162H20.5C15 83.162 10.5 78.662 10.5 73.162V50.662C10.5 45.162 15 40.662 20.5 40.662H100.5C106 40.662 110.5 45.162 110.5 50.662V73.162C110.5 78.662 106 83.162 100.5 83.162Z" fill="#8D6E63"/>
<path d="M65.5 78.1619H55.5C54 78.1619 53 77.162 53 75.662V70.662C53 69.162 54 68.162 55.5 68.162H65.5C67 68.162 68 69.162 68 70.662V75.662C68 77.162 67 78.1619 65.5 78.1619Z" fill="#FFF3E0"/>
</g>
<path d="M108.164 124.106L95.0226 110.965C97.6213 107.672 99.1846 103.524 99.1846 99.0042C99.1846 88.325 90.5216 79.6619 79.8423 79.6619C69.1631 79.6619 60.5 88.325 60.5 99.0042C60.5 109.686 69.1631 118.347 79.8423 118.347C84.3616 118.347 88.51 116.783 91.8027 114.185L104.946 127.324L108.164 124.106Z" fill="#616161"/>
<path d="M95.5221 117.901L98.7402 114.683L108.163 124.106L104.945 127.324L95.5221 117.901Z" fill="#37474F"/>
<path d="M94.6335 99.0044C94.6335 107.174 88.0093 113.796 79.8423 113.796C71.6753 113.796 65.0511 107.174 65.0511 99.0044C65.0511 90.8374 71.6753 84.2132 79.8423 84.2132C88.0093 84.2132 94.6335 90.8374 94.6335 99.0044Z" fill="#BBDEFB"/>
</svg>
