<svg width="70" height="70" viewBox="0 0 70 70" fill="none" xmlns="http://www.w3.org/2000/svg">
<circle cx="35" cy="35" r="34.5" fill="#F2F2F7" stroke="#AEAEB2"/>
<path d="M35 11.6667C22.1142 11.6667 11.6667 22.1142 11.6667 35C11.6667 41.9261 14.7027 48.1274 19.4938 52.4013V51.8316L19.7635 51.3797C21.7585 48.0197 29.3048 44.7222 34.9962 44.7222C40.6915 44.7222 48.2397 48.0177 50.2328 51.3797L50.5062 51.8354V52.3671V52.4013C55.2993 48.1293 58.3334 41.9261 58.3334 35C58.3334 22.1142 47.8859 11.6667 35 11.6667ZM35 23.3333C39.2895 23.3333 42.7778 26.8217 42.7778 31.1111V33.0556C42.7778 37.345 39.2895 40.8333 35 40.8333C30.7106 40.8333 27.2222 37.345 27.2222 33.0556V31.1111C27.2222 26.8217 30.7106 23.3333 35 23.3333ZM35 27.2222C32.8553 27.2222 31.1111 28.9664 31.1111 31.1111V33.0556C31.1111 35.2003 32.8553 36.9444 35 36.9444C37.1447 36.9444 38.8889 35.2003 38.8889 33.0556V31.1111C38.8889 28.9664 37.1447 27.2222 35 27.2222ZM34.9962 48.6111C30.4832 48.6111 24.952 51.197 23.3789 52.9975L23.3751 55.2116C26.7993 57.1871 30.7611 58.3333 35 58.3333C39.237 58.3333 43.1988 57.1852 46.6249 55.2116C46.623 54.5174 46.6193 53.7831 46.6173 52.9975C45.0443 51.197 39.5112 48.6111 34.9962 48.6111Z" fill="#D1D1D6"/>
</svg>
